<mxfile host="app.diagrams.net" modified="2024-06-04T11:14:30.206Z" agent="Mozilla/5.0 (Windows NT 10.0; Win64; x64) AppleWebKit/537.36 (KHTML, like Gecko) Chrome/121.0.0.0 Safari/537.36" etag="4EIJYYDcnwfpgMYcLJ1_" version="24.4.13" type="device" pages="2">
  <diagram name="Página-1" id="XZ8w7VEDlfYTN0CXsPS6">
    <mxGraphModel dx="1434" dy="782" grid="1" gridSize="10" guides="1" tooltips="1" connect="1" arrows="1" fold="1" page="1" pageScale="1" pageWidth="827" pageHeight="1169" math="0" shadow="0">
      <root>
        <mxCell id="0" />
        <mxCell id="1" parent="0" />
        <mxCell id="7us5fRCtFp0MgMIEdXxI-1" value="início" style="ellipse;whiteSpace=wrap;html=1;" parent="1" vertex="1">
          <mxGeometry x="80" y="20" width="140" height="80" as="geometry" />
        </mxCell>
        <mxCell id="7us5fRCtFp0MgMIEdXxI-2" value="" style="endArrow=classic;html=1;rounded=0;exitX=0.5;exitY=1;exitDx=0;exitDy=0;" parent="1" source="7us5fRCtFp0MgMIEdXxI-1" edge="1">
          <mxGeometry width="50" height="50" relative="1" as="geometry">
            <mxPoint x="125" y="140" as="sourcePoint" />
            <mxPoint x="150" y="150" as="targetPoint" />
          </mxGeometry>
        </mxCell>
        <mxCell id="7us5fRCtFp0MgMIEdXxI-3" value="gerente solicita produto" style="rounded=0;whiteSpace=wrap;html=1;" parent="1" vertex="1">
          <mxGeometry x="80" y="150" width="130" height="60" as="geometry" />
        </mxCell>
        <mxCell id="7us5fRCtFp0MgMIEdXxI-4" value="" style="endArrow=classic;html=1;rounded=0;" parent="1" edge="1">
          <mxGeometry width="50" height="50" relative="1" as="geometry">
            <mxPoint x="150" y="210" as="sourcePoint" />
            <mxPoint x="150" y="260" as="targetPoint" />
          </mxGeometry>
        </mxCell>
        <mxCell id="7us5fRCtFp0MgMIEdXxI-5" value="entrou produto?" style="rhombus;whiteSpace=wrap;html=1;" parent="1" vertex="1">
          <mxGeometry x="100" y="260" width="100" height="100" as="geometry" />
        </mxCell>
        <mxCell id="7us5fRCtFp0MgMIEdXxI-6" value="" style="endArrow=classic;html=1;rounded=0;exitX=0.5;exitY=1;exitDx=0;exitDy=0;" parent="1" source="7us5fRCtFp0MgMIEdXxI-5" edge="1">
          <mxGeometry width="50" height="50" relative="1" as="geometry">
            <mxPoint x="100" y="410" as="sourcePoint" />
            <mxPoint x="150" y="420" as="targetPoint" />
          </mxGeometry>
        </mxCell>
        <mxCell id="7us5fRCtFp0MgMIEdXxI-7" value="entrada de produtos" style="rounded=0;whiteSpace=wrap;html=1;" parent="1" vertex="1">
          <mxGeometry x="90" y="420" width="120" height="60" as="geometry" />
        </mxCell>
        <mxCell id="7us5fRCtFp0MgMIEdXxI-8" value="sim" style="text;html=1;align=center;verticalAlign=middle;whiteSpace=wrap;rounded=0;fontSize=16;" parent="1" vertex="1">
          <mxGeometry x="160" y="370" width="40" height="30" as="geometry" />
        </mxCell>
        <mxCell id="7us5fRCtFp0MgMIEdXxI-9" value="" style="endArrow=classic;html=1;rounded=0;" parent="1" edge="1">
          <mxGeometry width="50" height="50" relative="1" as="geometry">
            <mxPoint x="200" y="310" as="sourcePoint" />
            <mxPoint x="240" y="310" as="targetPoint" />
          </mxGeometry>
        </mxCell>
        <mxCell id="7us5fRCtFp0MgMIEdXxI-10" value="não" style="text;html=1;align=center;verticalAlign=middle;whiteSpace=wrap;rounded=0;" parent="1" vertex="1">
          <mxGeometry x="190" y="280" width="60" height="30" as="geometry" />
        </mxCell>
        <mxCell id="7us5fRCtFp0MgMIEdXxI-14" style="edgeStyle=orthogonalEdgeStyle;rounded=0;orthogonalLoop=1;jettySize=auto;html=1;exitX=0.5;exitY=0;exitDx=0;exitDy=0;" parent="1" source="7us5fRCtFp0MgMIEdXxI-11" edge="1">
          <mxGeometry relative="1" as="geometry">
            <mxPoint x="300" y="280" as="targetPoint" />
            <Array as="points">
              <mxPoint x="300" y="280" />
              <mxPoint x="300" y="280" />
            </Array>
          </mxGeometry>
        </mxCell>
        <mxCell id="7us5fRCtFp0MgMIEdXxI-11" value="saida de produtos" style="rounded=0;whiteSpace=wrap;html=1;" parent="1" vertex="1">
          <mxGeometry x="240" y="280" width="120" height="60" as="geometry" />
        </mxCell>
        <mxCell id="7us5fRCtFp0MgMIEdXxI-12" value="" style="endArrow=classic;html=1;rounded=0;" parent="1" edge="1">
          <mxGeometry width="50" height="50" relative="1" as="geometry">
            <mxPoint x="360" y="310" as="sourcePoint" />
            <mxPoint x="400" y="310" as="targetPoint" />
          </mxGeometry>
        </mxCell>
        <mxCell id="7us5fRCtFp0MgMIEdXxI-21" style="edgeStyle=orthogonalEdgeStyle;rounded=0;orthogonalLoop=1;jettySize=auto;html=1;exitX=0.5;exitY=1;exitDx=0;exitDy=0;entryX=0;entryY=0.5;entryDx=0;entryDy=0;" parent="1" source="7us5fRCtFp0MgMIEdXxI-16" target="7us5fRCtFp0MgMIEdXxI-19" edge="1">
          <mxGeometry relative="1" as="geometry" />
        </mxCell>
        <mxCell id="7us5fRCtFp0MgMIEdXxI-22" style="edgeStyle=orthogonalEdgeStyle;rounded=0;orthogonalLoop=1;jettySize=auto;html=1;exitX=1;exitY=0.5;exitDx=0;exitDy=0;" parent="1" source="7us5fRCtFp0MgMIEdXxI-16" edge="1">
          <mxGeometry relative="1" as="geometry">
            <mxPoint x="520" y="310" as="targetPoint" />
          </mxGeometry>
        </mxCell>
        <mxCell id="7us5fRCtFp0MgMIEdXxI-16" value="dados validos?" style="rhombus;whiteSpace=wrap;html=1;" parent="1" vertex="1">
          <mxGeometry x="400" y="265" width="80" height="90" as="geometry" />
        </mxCell>
        <mxCell id="7us5fRCtFp0MgMIEdXxI-17" value="" style="endArrow=classic;html=1;rounded=0;exitX=0.5;exitY=1;exitDx=0;exitDy=0;" parent="1" source="7us5fRCtFp0MgMIEdXxI-16" edge="1">
          <mxGeometry width="50" height="50" relative="1" as="geometry">
            <mxPoint x="390" y="400" as="sourcePoint" />
            <mxPoint x="440" y="390" as="targetPoint" />
          </mxGeometry>
        </mxCell>
        <mxCell id="7us5fRCtFp0MgMIEdXxI-18" value="altera estoque" style="rounded=0;whiteSpace=wrap;html=1;" parent="1" vertex="1">
          <mxGeometry x="390" y="390" width="120" height="60" as="geometry" />
        </mxCell>
        <mxCell id="7us5fRCtFp0MgMIEdXxI-19" value="&lt;font style=&quot;font-size: 16px;&quot;&gt;sim&lt;/font&gt;" style="text;html=1;align=center;verticalAlign=middle;whiteSpace=wrap;rounded=0;" parent="1" vertex="1">
          <mxGeometry x="440" y="340" width="60" height="30" as="geometry" />
        </mxCell>
        <mxCell id="7us5fRCtFp0MgMIEdXxI-24" value="mostrar erro" style="rounded=0;whiteSpace=wrap;html=1;" parent="1" vertex="1">
          <mxGeometry x="520" y="280" width="120" height="60" as="geometry" />
        </mxCell>
        <mxCell id="7us5fRCtFp0MgMIEdXxI-25" value="não" style="text;html=1;align=center;verticalAlign=middle;whiteSpace=wrap;rounded=0;" parent="1" vertex="1">
          <mxGeometry x="460" y="280" width="60" height="30" as="geometry" />
        </mxCell>
        <mxCell id="7us5fRCtFp0MgMIEdXxI-28" value="" style="endArrow=classic;html=1;rounded=0;exitX=0.5;exitY=1;exitDx=0;exitDy=0;" parent="1" source="7us5fRCtFp0MgMIEdXxI-7" edge="1">
          <mxGeometry width="50" height="50" relative="1" as="geometry">
            <mxPoint x="90" y="540" as="sourcePoint" />
            <mxPoint x="150" y="540" as="targetPoint" />
          </mxGeometry>
        </mxCell>
        <mxCell id="7us5fRCtFp0MgMIEdXxI-29" value="dados validos?" style="rhombus;whiteSpace=wrap;html=1;" parent="1" vertex="1">
          <mxGeometry x="97.5" y="540" width="105" height="110" as="geometry" />
        </mxCell>
        <mxCell id="7us5fRCtFp0MgMIEdXxI-30" value="" style="endArrow=classic;html=1;rounded=0;" parent="1" edge="1">
          <mxGeometry width="50" height="50" relative="1" as="geometry">
            <mxPoint x="202.5" y="594.5" as="sourcePoint" />
            <mxPoint x="262.5" y="594.5" as="targetPoint" />
          </mxGeometry>
        </mxCell>
        <mxCell id="7us5fRCtFp0MgMIEdXxI-31" value="mostrar erro" style="rounded=0;whiteSpace=wrap;html=1;" parent="1" vertex="1">
          <mxGeometry x="260" y="565" width="120" height="60" as="geometry" />
        </mxCell>
        <mxCell id="7us5fRCtFp0MgMIEdXxI-35" value="" style="endArrow=classic;html=1;rounded=0;entryX=1;entryY=0.5;entryDx=0;entryDy=0;" parent="1" target="7us5fRCtFp0MgMIEdXxI-7" edge="1">
          <mxGeometry width="50" height="50" relative="1" as="geometry">
            <mxPoint x="310" y="560" as="sourcePoint" />
            <mxPoint x="310" y="470" as="targetPoint" />
            <Array as="points">
              <mxPoint x="310" y="450" />
            </Array>
          </mxGeometry>
        </mxCell>
        <mxCell id="7us5fRCtFp0MgMIEdXxI-36" value="não" style="text;html=1;align=center;verticalAlign=middle;whiteSpace=wrap;rounded=0;" parent="1" vertex="1">
          <mxGeometry x="200" y="565" width="60" height="30" as="geometry" />
        </mxCell>
        <mxCell id="7us5fRCtFp0MgMIEdXxI-39" value="" style="endArrow=classic;html=1;rounded=0;exitX=0.5;exitY=1;exitDx=0;exitDy=0;entryX=0.458;entryY=0;entryDx=0;entryDy=0;entryPerimeter=0;" parent="1" source="7us5fRCtFp0MgMIEdXxI-29" target="7us5fRCtFp0MgMIEdXxI-40" edge="1">
          <mxGeometry width="50" height="50" relative="1" as="geometry">
            <mxPoint x="100" y="700" as="sourcePoint" />
            <mxPoint x="150" y="710" as="targetPoint" />
          </mxGeometry>
        </mxCell>
        <mxCell id="7us5fRCtFp0MgMIEdXxI-40" value="altera estoque" style="rounded=0;whiteSpace=wrap;html=1;" parent="1" vertex="1">
          <mxGeometry x="95" y="710" width="120" height="60" as="geometry" />
        </mxCell>
        <mxCell id="7us5fRCtFp0MgMIEdXxI-41" value="sim" style="text;html=1;align=center;verticalAlign=middle;whiteSpace=wrap;rounded=0;fontSize=16;" parent="1" vertex="1">
          <mxGeometry x="150" y="660" width="60" height="30" as="geometry" />
        </mxCell>
        <mxCell id="7us5fRCtFp0MgMIEdXxI-44" value="" style="endArrow=classic;html=1;rounded=0;" parent="1" edge="1">
          <mxGeometry width="50" height="50" relative="1" as="geometry">
            <mxPoint x="640" y="310" as="sourcePoint" />
            <mxPoint x="700" y="310" as="targetPoint" />
          </mxGeometry>
        </mxCell>
        <mxCell id="7us5fRCtFp0MgMIEdXxI-45" value="solucionar erro" style="rounded=0;whiteSpace=wrap;html=1;" parent="1" vertex="1">
          <mxGeometry x="700" y="280" width="120" height="60" as="geometry" />
        </mxCell>
        <mxCell id="7us5fRCtFp0MgMIEdXxI-46" value="" style="endArrow=classic;html=1;rounded=0;" parent="1" edge="1">
          <mxGeometry width="50" height="50" relative="1" as="geometry">
            <mxPoint x="380" y="595" as="sourcePoint" />
            <mxPoint x="440" y="595" as="targetPoint" />
          </mxGeometry>
        </mxCell>
        <mxCell id="7us5fRCtFp0MgMIEdXxI-47" value="solucionar erro" style="rounded=0;whiteSpace=wrap;html=1;" parent="1" vertex="1">
          <mxGeometry x="440" y="565" width="120" height="60" as="geometry" />
        </mxCell>
        <mxCell id="7us5fRCtFp0MgMIEdXxI-48" value="" style="endArrow=classic;html=1;rounded=0;exitX=0.5;exitY=1;exitDx=0;exitDy=0;" parent="1" source="7us5fRCtFp0MgMIEdXxI-40" edge="1">
          <mxGeometry width="50" height="50" relative="1" as="geometry">
            <mxPoint x="100" y="820" as="sourcePoint" />
            <mxPoint x="155" y="840" as="targetPoint" />
          </mxGeometry>
        </mxCell>
        <mxCell id="7us5fRCtFp0MgMIEdXxI-50" value="fim" style="ellipse;whiteSpace=wrap;html=1;" parent="1" vertex="1">
          <mxGeometry x="90" y="840" width="130" height="80" as="geometry" />
        </mxCell>
      </root>
    </mxGraphModel>
  </diagram>
  <diagram id="TqSMUrnULWolFZfTE3Vc" name="Página-2">
    <mxGraphModel dx="1434" dy="782" grid="1" gridSize="10" guides="1" tooltips="1" connect="1" arrows="1" fold="1" page="1" pageScale="1" pageWidth="827" pageHeight="1169" math="0" shadow="0">
      <root>
        <mxCell id="0" />
        <mxCell id="1" parent="0" />
        <mxCell id="phmDzFK6CjH4NnrtKT9i-1" value="" style="rounded=1;whiteSpace=wrap;html=1;arcSize=7;" parent="1" vertex="1">
          <mxGeometry x="70" y="150" width="300" height="310" as="geometry" />
        </mxCell>
        <mxCell id="phmDzFK6CjH4NnrtKT9i-8" value="&lt;span style=&quot;font-size: 17px;&quot;&gt;gerente&lt;/span&gt;" style="text;html=1;align=center;verticalAlign=middle;whiteSpace=wrap;rounded=0;strokeColor=default;" parent="1" vertex="1">
          <mxGeometry x="120" y="170" width="180" height="30" as="geometry" />
        </mxCell>
        <mxCell id="QFBs7QpZk00NTRBYIuHJ-1" value="&lt;span style=&quot;font-size: 14px;&quot;&gt;solicitar quantidade&lt;/span&gt;" style="text;html=1;align=center;verticalAlign=middle;whiteSpace=wrap;rounded=0;strokeColor=default;" parent="1" vertex="1">
          <mxGeometry x="90" y="230" width="160" height="30" as="geometry" />
        </mxCell>
        <mxCell id="QFBs7QpZk00NTRBYIuHJ-2" value="&lt;font style=&quot;font-size: 13px;&quot;&gt;solicitar produto especifico&lt;/font&gt;" style="text;html=1;align=center;verticalAlign=middle;whiteSpace=wrap;rounded=0;strokeColor=default;" parent="1" vertex="1">
          <mxGeometry x="90" y="290" width="160" height="30" as="geometry" />
        </mxCell>
        <mxCell id="XcE2IJrIgwqeTAqBbanH-1" value="&lt;font style=&quot;font-size: 14px;&quot;&gt;solicitar marcas&lt;/font&gt;" style="text;html=1;align=center;verticalAlign=middle;whiteSpace=wrap;rounded=0;strokeColor=default;" parent="1" vertex="1">
          <mxGeometry x="90" y="340" width="160" height="30" as="geometry" />
        </mxCell>
        <mxCell id="XcE2IJrIgwqeTAqBbanH-2" value="verificar se o produto chegou" style="text;html=1;align=center;verticalAlign=middle;whiteSpace=wrap;rounded=0;strokeColor=default;" parent="1" vertex="1">
          <mxGeometry x="90" y="390" width="160" height="30" as="geometry" />
        </mxCell>
        <mxCell id="XcE2IJrIgwqeTAqBbanH-3" value="50" style="text;html=1;align=center;verticalAlign=middle;whiteSpace=wrap;rounded=0;strokeColor=default;" parent="1" vertex="1">
          <mxGeometry x="270" y="230" width="60" height="30" as="geometry" />
        </mxCell>
        <mxCell id="XcE2IJrIgwqeTAqBbanH-4" value="2" style="text;html=1;align=center;verticalAlign=middle;whiteSpace=wrap;rounded=0;strokeColor=default;" parent="1" vertex="1">
          <mxGeometry x="270" y="290" width="60" height="30" as="geometry" />
        </mxCell>
        <mxCell id="XcE2IJrIgwqeTAqBbanH-5" value="2" style="text;html=1;align=center;verticalAlign=middle;whiteSpace=wrap;rounded=0;strokeColor=default;" parent="1" vertex="1">
          <mxGeometry x="270" y="340" width="60" height="30" as="geometry" />
        </mxCell>
        <mxCell id="v-dcf215TWmhRBNm7l5I-1" value="sim" style="text;html=1;align=center;verticalAlign=middle;whiteSpace=wrap;rounded=0;strokeColor=default;" parent="1" vertex="1">
          <mxGeometry x="270" y="390" width="60" height="30" as="geometry" />
        </mxCell>
        <mxCell id="CWzi8-A2L_F24nr1HhDY-1" value="" style="rounded=1;whiteSpace=wrap;html=1;fillColor=#dae8fc;strokeColor=#6c8ebf;" parent="1" vertex="1">
          <mxGeometry x="460" y="130" width="310" height="320" as="geometry" />
        </mxCell>
        <mxCell id="CWzi8-A2L_F24nr1HhDY-2" value="&lt;font style=&quot;font-size: 14px;&quot;&gt;entrada de produtos&lt;/font&gt;" style="text;html=1;align=center;verticalAlign=middle;whiteSpace=wrap;rounded=0;strokeColor=default;" parent="1" vertex="1">
          <mxGeometry x="510" y="140" width="230" height="30" as="geometry" />
        </mxCell>
        <mxCell id="CWzi8-A2L_F24nr1HhDY-3" value="&lt;font style=&quot;font-size: 15px;&quot;&gt;entrou produto ?&lt;/font&gt;" style="text;html=1;align=center;verticalAlign=middle;whiteSpace=wrap;rounded=0;strokeColor=default;" parent="1" vertex="1">
          <mxGeometry x="490" y="200" width="160" height="30" as="geometry" />
        </mxCell>
        <mxCell id="CWzi8-A2L_F24nr1HhDY-4" value="quantos produtos entrou ?" style="text;html=1;align=center;verticalAlign=middle;whiteSpace=wrap;rounded=0;strokeColor=default;" parent="1" vertex="1">
          <mxGeometry x="490" y="250" width="160" height="30" as="geometry" />
        </mxCell>
        <mxCell id="CWzi8-A2L_F24nr1HhDY-5" value="qual marca ?" style="text;html=1;align=center;verticalAlign=middle;whiteSpace=wrap;rounded=0;strokeColor=default;" parent="1" vertex="1">
          <mxGeometry x="490" y="290" width="160" height="30" as="geometry" />
        </mxCell>
        <mxCell id="CWzi8-A2L_F24nr1HhDY-7" value="esta tudo certo com o produto ?" style="text;html=1;align=center;verticalAlign=middle;whiteSpace=wrap;rounded=0;strokeColor=default;" parent="1" vertex="1">
          <mxGeometry x="490" y="340" width="160" height="30" as="geometry" />
        </mxCell>
        <mxCell id="CWzi8-A2L_F24nr1HhDY-8" value="&amp;nbsp;chegou os produtos que foram pedidos ?" style="text;html=1;align=center;verticalAlign=middle;whiteSpace=wrap;rounded=0;strokeColor=default;" parent="1" vertex="1">
          <mxGeometry x="490" y="390" width="160" height="30" as="geometry" />
        </mxCell>
        <mxCell id="CWzi8-A2L_F24nr1HhDY-9" value="sim" style="text;html=1;align=center;verticalAlign=middle;whiteSpace=wrap;rounded=0;strokeColor=default;" parent="1" vertex="1">
          <mxGeometry x="670" y="200" width="60" height="30" as="geometry" />
        </mxCell>
        <mxCell id="CWzi8-A2L_F24nr1HhDY-10" value="sim" style="text;html=1;align=center;verticalAlign=middle;whiteSpace=wrap;rounded=0;strokeColor=default;" parent="1" vertex="1">
          <mxGeometry x="670" y="390" width="60" height="30" as="geometry" />
        </mxCell>
        <mxCell id="CWzi8-A2L_F24nr1HhDY-11" value="50" style="text;html=1;align=center;verticalAlign=middle;whiteSpace=wrap;rounded=0;strokeColor=default;" parent="1" vertex="1">
          <mxGeometry x="670" y="250" width="60" height="30" as="geometry" />
        </mxCell>
        <mxCell id="CWzi8-A2L_F24nr1HhDY-12" value="2" style="text;html=1;align=center;verticalAlign=middle;whiteSpace=wrap;rounded=0;strokeColor=default;" parent="1" vertex="1">
          <mxGeometry x="670" y="290" width="60" height="30" as="geometry" />
        </mxCell>
        <mxCell id="CWzi8-A2L_F24nr1HhDY-13" value="sim" style="text;html=1;align=center;verticalAlign=middle;whiteSpace=wrap;rounded=0;strokeColor=default;" parent="1" vertex="1">
          <mxGeometry x="670" y="340" width="60" height="30" as="geometry" />
        </mxCell>
        <mxCell id="KNmQpYuRX0Y55xU8MTpN-1" value="" style="rounded=1;whiteSpace=wrap;html=1;" vertex="1" parent="1">
          <mxGeometry x="90" y="590" width="210" as="geometry" />
        </mxCell>
        <mxCell id="KNmQpYuRX0Y55xU8MTpN-2" value="" style="rounded=1;whiteSpace=wrap;html=1;" vertex="1" parent="1">
          <mxGeometry x="70" y="550" width="320" height="410" as="geometry" />
        </mxCell>
        <mxCell id="KNmQpYuRX0Y55xU8MTpN-3" value="&lt;font style=&quot;font-size: 15px;&quot;&gt;saída de produtos&lt;/font&gt;" style="text;html=1;align=center;verticalAlign=middle;whiteSpace=wrap;rounded=0;strokeColor=default;" vertex="1" parent="1">
          <mxGeometry x="110" y="575" width="230" height="30" as="geometry" />
        </mxCell>
        <mxCell id="2KC5ipNpOzXymxuBPXd--1" value="quantos produtos saiu" style="text;html=1;align=center;verticalAlign=middle;whiteSpace=wrap;rounded=0;strokeColor=default;" vertex="1" parent="1">
          <mxGeometry x="90" y="650" width="170" height="30" as="geometry" />
        </mxCell>
        <mxCell id="2KC5ipNpOzXymxuBPXd--3" value="qual marca" style="text;html=1;align=center;verticalAlign=middle;whiteSpace=wrap;rounded=0;strokeColor=default;" vertex="1" parent="1">
          <mxGeometry x="90" y="710" width="170" height="30" as="geometry" />
        </mxCell>
        <mxCell id="2KC5ipNpOzXymxuBPXd--4" value="corfirmar os dados antes da entrega" style="text;html=1;align=center;verticalAlign=middle;whiteSpace=wrap;rounded=0;strokeColor=default;" vertex="1" parent="1">
          <mxGeometry x="90" y="770" width="170" height="30" as="geometry" />
        </mxCell>
        <mxCell id="2KC5ipNpOzXymxuBPXd--5" value="os dados estão correto" style="text;html=1;align=center;verticalAlign=middle;whiteSpace=wrap;rounded=0;strokeColor=default;" vertex="1" parent="1">
          <mxGeometry x="90" y="830" width="160" height="30" as="geometry" />
        </mxCell>
        <mxCell id="2KC5ipNpOzXymxuBPXd--6" value="corfirmar se esta sendo entregue para o cliente certo" style="text;html=1;align=center;verticalAlign=middle;whiteSpace=wrap;rounded=0;strokeColor=default;" vertex="1" parent="1">
          <mxGeometry x="90" y="890" width="160" height="30" as="geometry" />
        </mxCell>
        <mxCell id="2KC5ipNpOzXymxuBPXd--7" value="" style="text;html=1;align=center;verticalAlign=middle;whiteSpace=wrap;rounded=0;strokeColor=default;" vertex="1" parent="1">
          <mxGeometry x="290" y="650" width="60" height="30" as="geometry" />
        </mxCell>
        <mxCell id="2KC5ipNpOzXymxuBPXd--8" value="" style="text;html=1;align=center;verticalAlign=middle;whiteSpace=wrap;rounded=0;strokeColor=default;" vertex="1" parent="1">
          <mxGeometry x="290" y="710" width="60" height="30" as="geometry" />
        </mxCell>
        <mxCell id="2KC5ipNpOzXymxuBPXd--9" value="" style="text;html=1;align=center;verticalAlign=middle;whiteSpace=wrap;rounded=0;strokeColor=default;" vertex="1" parent="1">
          <mxGeometry x="290" y="770" width="60" height="30" as="geometry" />
        </mxCell>
        <mxCell id="2KC5ipNpOzXymxuBPXd--10" value="" style="text;html=1;align=center;verticalAlign=middle;whiteSpace=wrap;rounded=0;strokeColor=default;" vertex="1" parent="1">
          <mxGeometry x="290" y="830" width="60" height="30" as="geometry" />
        </mxCell>
        <mxCell id="2KC5ipNpOzXymxuBPXd--11" value="" style="text;html=1;align=center;verticalAlign=middle;whiteSpace=wrap;rounded=0;strokeColor=default;" vertex="1" parent="1">
          <mxGeometry x="290" y="890" width="60" height="30" as="geometry" />
        </mxCell>
        <mxCell id="_5JHX6TgjhY9G5HY3xA4-1" value="" style="rounded=1;whiteSpace=wrap;html=1;" vertex="1" parent="1">
          <mxGeometry x="470" y="550" width="330" height="410" as="geometry" />
        </mxCell>
        <mxCell id="_5JHX6TgjhY9G5HY3xA4-2" value="&lt;font style=&quot;font-size: 16px;&quot;&gt;alterar estoque&lt;/font&gt;" style="text;html=1;align=center;verticalAlign=middle;whiteSpace=wrap;rounded=0;strokeColor=default;" vertex="1" parent="1">
          <mxGeometry x="530" y="575" width="210" height="30" as="geometry" />
        </mxCell>
        <mxCell id="_5JHX6TgjhY9G5HY3xA4-3" value="o produto entrou ou saiu ?" style="text;html=1;align=center;verticalAlign=middle;whiteSpace=wrap;rounded=0;strokeColor=default;" vertex="1" parent="1">
          <mxGeometry x="490" y="650" width="170" height="30" as="geometry" />
        </mxCell>
        <mxCell id="_5JHX6TgjhY9G5HY3xA4-4" value="quantos produtos" style="text;html=1;align=center;verticalAlign=middle;whiteSpace=wrap;rounded=0;strokeColor=default;" vertex="1" parent="1">
          <mxGeometry x="490" y="710" width="170" height="30" as="geometry" />
        </mxCell>
        <mxCell id="_5JHX6TgjhY9G5HY3xA4-5" value="qual marca" style="text;html=1;align=center;verticalAlign=middle;whiteSpace=wrap;rounded=0;strokeColor=default;" vertex="1" parent="1">
          <mxGeometry x="490" y="770" width="170" height="30" as="geometry" />
        </mxCell>
        <mxCell id="_5JHX6TgjhY9G5HY3xA4-6" value="fazer a alteração no estoque" style="text;html=1;align=center;verticalAlign=middle;whiteSpace=wrap;rounded=0;strokeColor=default;" vertex="1" parent="1">
          <mxGeometry x="490" y="830" width="170" height="30" as="geometry" />
        </mxCell>
        <mxCell id="_5JHX6TgjhY9G5HY3xA4-7" value="" style="text;html=1;align=center;verticalAlign=middle;whiteSpace=wrap;rounded=0;strokeColor=default;" vertex="1" parent="1">
          <mxGeometry x="700" y="650" width="60" height="30" as="geometry" />
        </mxCell>
        <mxCell id="_5JHX6TgjhY9G5HY3xA4-8" value="" style="text;html=1;align=center;verticalAlign=middle;whiteSpace=wrap;rounded=0;strokeColor=default;" vertex="1" parent="1">
          <mxGeometry x="700" y="710" width="60" height="30" as="geometry" />
        </mxCell>
        <mxCell id="_5JHX6TgjhY9G5HY3xA4-9" value="" style="text;html=1;align=center;verticalAlign=middle;whiteSpace=wrap;rounded=0;strokeColor=default;" vertex="1" parent="1">
          <mxGeometry x="700" y="770" width="60" height="30" as="geometry" />
        </mxCell>
        <mxCell id="_5JHX6TgjhY9G5HY3xA4-10" value="" style="text;html=1;align=center;verticalAlign=middle;whiteSpace=wrap;rounded=0;strokeColor=default;" vertex="1" parent="1">
          <mxGeometry x="700" y="830" width="60" height="30" as="geometry" />
        </mxCell>
      </root>
    </mxGraphModel>
  </diagram>
</mxfile>
